<?xml version="1.0" encoding="UTF-8"?>
<svg xmlns="http://www.w3.org/2000/svg" viewBox="0 0 1095 1095" width="1095" height="1095">
<path d="M489.5 238.02C498.58 238.02 513.84 235.96 521.73 240.74C529.17 245.24 528.21 257.25 527.12 264.51C526.62 267.8 526.2 271.64 523.34 273.86C515.76 279.72 498.24 275.66 488.98 277.5C488.98 286.39 491.18 302.92 485.92 310.35C480.75 317.66 457.2 317.99 452.58 309.89C448.57 302.85 450.1 285.75 450.1 277.5C439.82 275.52 426.39 280.1 416.92 274.56C408.53 269.66 408.68 244.55 417.69 240.18C427.58 235.39 439.77 239.58 450.1 237.5C450.1 229.28 448.51 212.1 452.62 205.16C457.11 197.59 480.3 197.27 485.66 203.78C491.74 211.17 487.6 228.85 489.5 238.02ZM174.79 544.45C182.93 543.61 191.32 544.14 199.5 544.14C213.83 544.14 228.17 544.14 242.5 544.14C286.17 544.14 329.83 544.14 373.5 544.14C506.5 544.14 639.5 544.14 772.5 544.14C809.83 544.14 847.17 544.14 884.5 544.14C901.03 544.14 918.08 542.95 934.49 545.15C954.84 547.87 974.49 558.07 988.91 572.6C1004.22 588.03 1013.6 608.98 1015.86 630.5C1017.37 644.92 1016.16 660.01 1016.16 674.5C1016.16 718.5 1016.16 762.5 1016.16 806.5C1016.16 836.83 1016.16 867.17 1016.16 897.5C1016.16 923.08 1017.75 944.82 1005.88 968.37C992.98 993.98 967.89 1013.72 939.47 1018.88C921.84 1022.09 903.35 1020.7 885.5 1020.7C860.17 1020.7 834.83 1020.7 809.5 1020.7C639.17 1020.7 468.83 1020.7 298.5 1020.7C271.17 1020.7 243.83 1020.7 216.5 1020.7C200.97 1020.7 184.94 1021.82 169.5 1019.86C144.34 1016.67 121.67 1003.24 106.05 983.43C86.16 958.21 86.17 933.05 86.17 902.5C86.17 887.17 86.17 871.83 86.17 856.5C86.17 832.5 86.17 808.5 86.17 784.5C86.17 749.17 86.17 713.83 86.17 678.5C86.17 657.77 84.14 635.85 89.2 615.65C99.33 575.23 134.22 548.65 174.79 544.45ZM192.03 755.69C189.98 748.43 191.39 739.1 191.39 731.5C191.39 715.5 191.4 699.5 191.39 683.5C191.39 674.23 192.83 661.03 185.63 653.87C178.29 646.59 166.17 646.04 156.5 646.08C148.79 646.12 139.69 647.04 133.23 651.7C128.33 655.22 126.52 661.88 125.86 667.5C124.24 681.35 125.01 695.54 125.01 709.5C125.01 760.17 125.01 810.83 125.01 861.5C125.01 873.22 124.81 884.86 125.91 896.5C126.57 903.56 127.81 910.09 134.07 914.45C138.36 917.44 143.44 918.4 148.49 919.15C163.13 921.33 183.92 920.62 189.77 904.32C192.86 895.73 191.39 882.69 191.39 873.5C191.39 852.66 190.66 831.67 191.5 810.85C224.49 810.85 257.47 810.85 290.46 810.85C290.46 833.73 290.46 856.62 290.46 879.5C290.46 889.37 289.03 902.64 295.54 910.93C302.64 919.98 318.08 920.56 328.5 919.81C332.7 919.51 337.17 918.79 341.23 917.65C358.83 912.67 356.75 891.99 356.75 877.5C356.75 862.83 356.75 848.17 356.75 833.5C356.75 825.49 356.18 817.22 357.14 809.28C379.26 809.28 401.38 809.28 423.5 809.28C428.74 843.02 442.32 875.83 469.08 898.45C510.23 933.22 574.19 933.05 615.96 899.49C635.96 883.42 650.26 859.71 657.72 835.29C659.91 828.12 661.54 820.74 662.66 813.33C663.09 810.48 663.02 807.63 663.72 804.83C685.64 804.83 707.57 804.83 729.5 804.83C730.8 813.43 729.9 822.77 729.9 831.5C729.9 847.5 729.9 863.5 729.9 879.5C729.9 889.67 728.19 904.37 736.21 912.27C743.08 919.04 754.46 919.86 763.5 919.89C777.83 919.93 792.17 919.89 806.5 919.89C818.83 919.89 831.17 919.89 843.5 919.89C860.8 919.89 877.73 920.3 894 913.49C947.63 891.06 965.07 816.55 925.11 773.5C931.87 759.71 936.99 752.69 938.87 736.5C942.89 701.92 921.44 663.78 888.16 651.41C864.94 642.78 834.34 645.87 809.5 645.87C793.84 645.87 778.16 645.66 762.5 645.89C754.02 646.01 744.22 646.15 737.29 651.83C728.84 658.76 729.91 671.82 729.9 681.5C729.9 695.83 729.9 710.17 729.9 724.5C729.9 732.14 730.75 740.42 729.5 747.91C707.96 748.63 685.85 746.21 664.5 749.01C662.96 741.63 663.98 733.1 663.98 725.5C663.98 711.17 663.98 696.83 663.98 682.5C663.97 673.55 665 660.36 658.17 653.32C651.42 646.37 639.48 645.92 630.5 645.89C624.2 645.88 617.69 646.08 611.72 648.27C593.42 654.96 597.95 681.11 597.95 696.5C597.95 721.17 597.95 745.83 597.95 770.5C597.95 790.29 598.75 810.1 589.79 828.3C585.54 836.95 580 844.97 571.91 850.42C566.31 854.19 560.04 856 553.52 857.08C528.06 861.31 507.35 851.44 496.82 827.69C494.28 821.94 491.76 815.74 491.26 809.5C499.87 808.59 511.15 811.44 518.83 806.36C529.07 799.59 528.61 783.01 527.17 772.47C526.4 766.84 525.42 760.68 520.49 757.01C511.45 750.27 499.44 754.06 489.14 752.5C488.01 729.27 488.99 705.76 488.99 682.5C488.99 672.27 489.31 658.19 480.54 650.97C472.87 644.66 455.87 645.36 446.5 646.11C442.93 646.4 439.15 647.12 435.77 648.34C421.82 653.35 422.45 670.3 422.44 682.5C422.44 697.5 422.44 712.5 422.44 727.5C422.44 735.91 422.87 744.46 422.16 752.84C400.43 752.84 378.7 752.84 356.97 752.84C355.52 730.23 356.75 707.16 356.75 684.5C356.75 675.12 358.07 661.66 351.39 654.12C344.41 646.25 327.13 645.5 317.5 646.13C313.29 646.41 308.81 647.09 304.78 648.36C289.07 653.31 290.46 672.31 290.46 685.5C290.46 700.5 290.46 715.5 290.46 730.5C290.46 738.75 291.34 747.6 289.89 755.69C257.27 755.69 224.65 755.69 192.03 755.69ZM796.08 712.06C810.55 711.85 825.03 712.01 839.5 712.01C850.44 712.01 870.09 709.92 872.73 724.63C873.36 728.11 873.16 731.99 872.92 735.5C872.6 740.07 871.58 746.35 866.31 747.8C861.01 749.26 849.45 748.01 843.5 748.01C827.7 748.01 811.88 748.2 796.08 747.97C796.08 736 796.08 724.03 796.08 712.06ZM796.07 804.92C813.87 804.61 831.7 804.86 849.5 804.86C860.57 804.86 875.72 802.35 879.48 816.02C880.14 818.42 880.64 821.01 880.81 823.5C881.08 827.25 881.06 831.11 880.41 834.81C876.25 858.34 852.72 853.79 834.5 853.79C821.88 853.79 808.59 854.95 796.07 853.5C796.07 837.31 796.07 821.12 796.07 804.92Z" fill="#e8ba00" fill-rule="evenodd" stroke="#e8ba00" stroke-width="0.25" stroke-linejoin="round"/>
<path d="M886.5 206.55C889.83 205.37 892.38 202 895.69 200.19C903.45 195.95 913.19 195.01 921.71 196.71C967.24 205.78 987.1 262.16 959.4 298.87C947.25 314.99 928.96 326.07 908.34 323.36C899.66 322.22 892.54 319.4 886.5 312.92C884.56 315.47 883.61 318.44 880.83 320.37C872.41 326.21 849.32 326.82 845.2 315.33C842.08 306.67 843.8 282.81 843.8 272.5C843.8 242.5 843.8 212.5 843.8 182.5C843.8 173.17 843.69 163.83 843.81 154.5C843.87 149.71 844.08 143.86 847.58 140.09C850.51 136.93 855.49 136.22 859.5 135.9C868.16 135.21 880.4 134.45 884.61 143.82C887.49 150.23 886.48 158.62 886.48 165.5C886.48 179.18 886.37 192.87 886.5 206.55ZM181.68 234.5C196.05 249.54 211.76 263.3 225.7 278.79C231.17 284.85 239.45 291.56 241.79 299.69C244.07 307.63 238.1 314.23 232.36 318.9C227.68 322.71 221.22 327.97 214.76 326.64C207.02 325.04 199.4 313.78 194.43 308.09C179.19 290.62 163.96 273.13 148.5 255.87C147.45 261.21 147.98 267.02 147.98 272.5C147.98 281.83 147.99 291.17 147.98 300.5C147.97 306.94 148.75 315.14 143.49 319.99C138.7 324.4 130.57 324.46 124.5 324.26C119.62 324.11 114.1 323.51 110.05 320.47C101.92 314.38 104.83 291.84 104.83 282.5C104.83 249.83 104.83 217.17 104.83 184.5C104.83 175.59 102.11 155.29 109.74 149.27C113.8 146.07 119.55 145.6 124.52 145.4C131.19 145.13 140.59 145.62 145.04 151.45C148.9 156.52 147.98 164.53 147.98 170.5C147.98 179.5 147.98 188.5 147.98 197.5C147.98 202.69 147.52 208.13 148.5 213.18C162.11 198.06 175.68 182.85 188.9 167.36C195.36 159.78 201.68 150.09 210.13 144.6C216.87 140.22 223.66 143.7 229.41 148.05C234.68 152.05 242.36 158.27 242.49 165.52C242.65 174.29 233.45 182.55 227.93 188.42C213.03 204.27 196.47 218.6 181.68 234.5ZM590.66 287.5C596.93 288.91 604.02 288.14 610.5 288.14C622.83 288.14 635.17 288.14 647.5 288.14C655.74 288.14 671.05 285.94 673.83 296.6C674.66 299.79 675.02 303.22 675 306.5C674.98 309.7 674.56 313.17 673.74 316.27C670.99 326.66 654.37 324.39 646.5 324.39C624.5 324.39 602.5 324.39 580.5 324.39C571.79 324.39 559.57 326.17 552.29 320.18C544.55 313.81 547.19 292.73 547.19 283.5C547.19 249.5 547.19 215.5 547.19 181.5C547.19 169.32 543.48 149.29 559.55 146.17C567.66 144.6 582.45 143.83 587.82 151.7C590.03 154.94 590.01 158.68 590.36 162.45C591.22 171.7 590.66 181.21 590.66 190.5C590.66 222.83 590.66 255.17 590.66 287.5ZM318.64 193.28C327.01 191.89 336.51 192.62 344.64 194.77C364.76 200.1 383.27 214.88 390.76 234.71C405.79 274.47 381.42 319.86 338.49 325.84C329.02 327.16 319.64 326.86 310.44 324.18C301.59 321.59 293.03 317.51 285.95 311.53C276.33 303.39 268.44 293.3 264.27 281.27C250.32 241.08 277.86 200.02 318.64 193.28ZM777.5 208.81C779.49 204.99 780.25 201.17 784.08 198.56C790.3 194.32 810.18 194.34 815.94 199.55C817.69 201.14 819.16 204.48 819.7 206.76C820.85 211.66 820.32 217.47 820.32 222.5C820.32 231.5 820.32 240.5 820.32 249.5C820.33 263.5 820.32 277.5 820.32 291.5C820.32 298.44 821.26 306.45 819.68 313.23C816.6 326.54 792.61 326.46 783.72 320.78C780.24 318.56 779.83 314.68 777.5 311.94C763.38 327.52 740.15 326.67 722.99 316.5C703.22 304.77 690.74 282.29 690.79 259.5C690.86 230.99 711.88 202.35 740.46 196.87C753.31 194.4 769.43 197.48 777.5 208.81ZM322.77 236.32C291.94 242.65 302.11 290.04 333.45 282.9C357.37 277.45 359.23 244.11 334.64 236.8C330.98 235.71 326.55 235.54 322.77 236.32ZM753.7 238.41C724.62 240.94 729.13 284.69 758.5 281C784.07 277.79 780 236.12 753.7 238.41ZM902.66 239.22C890.66 241.68 884.48 256.56 888.21 267.32C891.85 277.81 902.75 282.97 913.31 280.76C930.99 277.07 934.86 253.11 920.87 242.61C915.81 238.81 908.78 237.96 902.66 239.22ZM694.79 337.42C700.27 336.6 709.5 336.46 713.91 340.6C719.61 345.97 719.4 366.57 712.26 370.74C706.38 374.18 689.43 374.46 684.9 368.65C680.58 363.12 680.29 345.97 685.39 340.88C687.85 338.42 691.49 337.91 694.79 337.42ZM168.74 344.34C185.04 341.38 203.23 347.01 217.11 355.42C224.99 360.19 231.38 364.82 227.51 375.02C226.49 377.71 224.77 380.23 222.97 382.45C220.53 385.43 217.18 389.67 213.33 390.82C207.05 392.69 202.15 388.38 197.27 385.26C192.65 382.32 186.89 380.74 181.5 380.13C156.56 377.31 134.17 398.43 136.22 423.5C138.32 449.14 162.63 465.31 187.3 459.75C195.79 457.84 206.89 446.55 214.22 450.3C218.01 452.23 220.81 455.9 223.13 459.34C225.58 462.99 228.72 467.82 228.58 472.41C228.4 478.16 223.45 481.74 219.05 484.54C208.84 491.02 197.51 495.32 185.49 496.9C177.51 497.95 169.03 497.06 161.29 495.28C114.48 484.56 87.15 436.31 105.31 390.76C115.92 364.13 141.7 349.26 168.74 344.34ZM636.5 388.83C643.26 387.53 657.09 386.37 662.89 390.6C669.34 395.31 669.17 415.62 663.19 420.63C657 425.81 643.99 423.07 636.5 423C635.32 428.88 636 435.45 636 441.5C636 447.68 635.19 454.22 638.5 459.71C644.7 463 654.1 459.49 659.07 465.4C661.57 468.38 661.9 472.79 661.95 476.5C662.02 481.3 661.91 487.28 658.61 491.14C652.57 498.22 632.75 494.97 624.74 492.73C592.08 483.6 603.93 447.45 600.5 423.17C595.69 422.98 589.5 424.49 585.65 420.88C579.85 415.47 580.05 394.05 587.07 389.57C591.21 386.93 596.09 388.37 600.61 388.5C601.19 380.57 598.87 362.33 602.66 356.2C607.43 348.47 630.23 348.6 634.5 356.97C638.58 364.94 634.57 379.65 636.5 388.83ZM376.99 453.5C380.56 468.39 401.76 468.12 413.43 464.87C417.93 463.62 422.66 460.49 427.46 461.13C437.5 462.47 443.02 478.89 438.14 486.67C432.32 495.96 418.11 496.18 408.59 497.32C375.43 501.28 343.98 486.23 339.09 450.48C337.14 436.22 339.88 419.82 348.57 408.09C367.46 382.59 411.98 375.31 434.5 400C438.41 404.3 441.53 409.66 443.37 415.17C444.77 419.34 445.58 424.1 445.71 428.51C446.03 438.93 440.49 450.62 429.33 452.77C425.57 453.5 421.32 452.99 417.5 452.99C408.83 452.99 400.17 452.99 391.5 452.99C386.7 452.99 381.64 452.56 376.99 453.5ZM794.5 447.27C801.33 434.32 808.12 421.34 814.81 408.32C817.93 402.25 820.73 393.97 825.69 389.15C833.51 381.53 847.72 388.88 853.39 396.12C859.97 404.54 852.5 414.1 848.15 421.66C838.07 439.18 827.88 456.68 817.57 474.08C813.1 481.63 809.67 490.78 801.17 494.63C793.72 498.01 784.52 495.33 779.62 488.84C773.85 481.19 769.61 471.99 764.74 463.74C756.81 450.32 748.9 436.87 741.11 423.37C736.05 414.61 727.17 403.92 736.23 394.74C741.4 389.49 752.48 382.68 759.83 386.63C764.65 389.22 767.23 396.26 769.64 400.82C775.64 412.2 781.5 423.65 787.45 435.06C789.58 439.15 791.34 444.02 794.5 447.27ZM906.06 453.5C909.09 468.52 931.1 468.02 942.43 464.86C947.18 463.54 952.22 460.18 957.29 461.28C967.03 463.38 972.14 480.37 966.41 487.89C960.44 495.73 947.29 496.34 938.51 497.2C929.57 498.08 920.55 498.49 911.67 496.77C889.08 492.41 871.67 474.35 868.24 451.45C865.73 434.76 869.58 417.09 880.73 404.23C900.41 381.57 943.29 376.7 963.98 400.53C967.67 404.78 970.49 409.92 972.31 415.24C973.71 419.37 974.21 423.61 974.5 427.96C975.2 438.56 969.72 450.57 958.34 452.78C954.58 453.51 950.32 452.99 946.5 452.99C937.83 452.99 929.17 452.99 920.5 452.99C915.73 452.99 910.69 452.54 906.06 453.5ZM281.5 397.95C289.27 388.99 299.01 385.89 310.5 386.99C320.34 387.94 327.29 391.71 327.18 402.5C327.15 405.24 326.76 407.84 325.93 410.45C324.38 415.29 321.75 422.18 316.31 423.8C305.65 426.98 298.69 415.9 286.91 424.45C285.14 425.73 283.59 427.07 282.55 429.03C280.13 433.62 281.07 439.48 281.07 444.5C281.07 454.5 281.07 464.5 281.07 474.5C281.07 487.96 279.75 494.99 264.5 495.06C261.61 495.07 258.56 495.3 255.72 494.73C242.08 491.98 245.07 477.1 245.07 466.5C245.07 450.83 245.07 435.17 245.07 419.5C245.07 411.98 243.61 402.73 246.14 395.56C246.8 393.71 247.59 391.91 249.15 390.63C254.59 386.18 270.63 386.35 276.32 390.17C279.24 392.13 279.54 395.51 281.5 397.95ZM531.5 484.85C517.84 499.72 495.36 496.5 480.63 484.92C465.49 473.02 458.18 455.49 459.04 436.5C459.9 417.37 474.64 397.87 492.33 390.82C505.48 385.58 522.14 386.76 531.5 398.38C532.68 395.62 533.65 392.53 536.14 390.62C543.63 384.89 564.31 385.54 566.8 396.65C568.13 402.57 567.34 409.47 567.34 415.5C567.34 427.17 567.34 438.83 567.34 450.5C567.34 459.86 568.76 477.89 566.74 486.27C564.18 496.87 544.6 497.07 537.06 492.45C534.14 490.66 533.26 487.46 531.5 484.85ZM691.74 388.33C698.6 387.02 710.89 386.51 715.45 393.05C718.83 397.89 717.78 408.76 717.78 414.5C717.78 431.17 717.78 447.83 717.78 464.5C717.78 475.25 720.82 492.66 706.46 494.9C700.41 495.85 688.86 496.39 684.62 490.86C680.34 485.27 682 476.04 682 469.5C682 452.83 682 436.17 682 419.5C682 409.32 678.12 390.93 691.74 388.33ZM408.76 432.5C412.95 423.79 405.79 417.97 397.5 417.92C388.34 417.85 378.24 423.86 376.94 433.5C382.03 435.27 404.2 435.36 408.76 432.5ZM905.83 433.5C911.95 435.54 919.93 434.39 926.5 434.39C929.57 434.39 933.23 434.89 936.09 433.54C939.06 432.12 939.47 428.44 938.87 425.56C937.68 419.83 931.57 417.94 926.5 417.91C917.17 417.85 907.5 423.89 905.83 433.5ZM509.78 423.39C486.88 427.68 492.52 462.35 515.46 458.9C538.28 455.47 532.44 419.15 509.78 423.39ZM192.03 755.69C224.65 755.69 257.27 755.69 289.89 755.69C291.34 747.6 290.46 738.75 290.46 730.5C290.46 715.5 290.46 700.5 290.46 685.5C290.46 672.31 289.07 653.31 304.78 648.36C308.81 647.09 313.29 646.41 317.5 646.13C327.13 645.5 344.41 646.25 351.39 654.12C358.07 661.66 356.75 675.12 356.75 684.5C356.75 707.16 355.52 730.23 356.97 752.84C378.7 752.84 400.43 752.84 422.16 752.84C422.87 744.46 422.44 735.91 422.44 727.5C422.44 712.5 422.44 697.5 422.44 682.5C422.45 670.3 421.82 653.35 435.77 648.34C439.15 647.12 442.93 646.4 446.5 646.11C455.87 645.36 472.87 644.66 480.54 650.97C489.31 658.19 488.99 672.27 488.99 682.5C488.99 705.76 488.01 729.27 489.14 752.5C499.44 754.06 511.45 750.27 520.49 757.01C525.42 760.68 526.4 766.84 527.17 772.47C528.61 783.01 529.07 799.59 518.83 806.36C511.15 811.44 499.87 808.59 491.26 809.5C491.76 815.74 494.28 821.94 496.82 827.69C507.35 851.44 528.06 861.31 553.52 857.08C560.04 856 566.31 854.19 571.91 850.42C580 844.97 585.54 836.95 589.79 828.3C598.75 810.1 597.95 790.29 597.95 770.5C597.95 745.83 597.95 721.17 597.95 696.5C597.95 681.11 593.42 654.96 611.72 648.27C617.69 646.08 624.2 645.88 630.5 645.89C639.48 645.92 651.42 646.37 658.17 653.32C665 660.36 663.97 673.55 663.98 682.5C663.98 696.83 663.98 711.17 663.98 725.5C663.98 733.1 662.96 741.63 664.5 749.01C685.85 746.21 707.96 748.63 729.5 747.91C730.75 740.42 729.9 732.14 729.9 724.5C729.9 710.17 729.9 695.83 729.9 681.5C729.91 671.82 728.84 658.76 737.29 651.83C744.22 646.15 754.02 646.01 762.5 645.89C778.16 645.66 793.84 645.87 809.5 645.87C834.34 645.87 864.94 642.78 888.16 651.41C921.44 663.78 942.89 701.92 938.87 736.5C936.99 752.69 931.87 759.71 925.11 773.5C965.07 816.55 947.63 891.06 894 913.49C877.73 920.3 860.8 919.89 843.5 919.89C831.17 919.89 818.83 919.89 806.5 919.89C792.17 919.89 777.83 919.93 763.5 919.89C754.46 919.86 743.08 919.04 736.21 912.27C728.19 904.37 729.9 889.67 729.9 879.5C729.9 863.5 729.9 847.5 729.9 831.5C729.9 822.77 730.8 813.43 729.5 804.83C707.57 804.83 685.64 804.83 663.72 804.83C663.02 807.63 663.09 810.48 662.66 813.33C661.54 820.74 659.91 828.12 657.72 835.29C650.26 859.71 635.96 883.42 615.96 899.49C574.19 933.05 510.23 933.22 469.08 898.45C442.32 875.83 428.74 843.02 423.5 809.28C401.38 809.28 379.26 809.28 357.14 809.28C356.18 817.22 356.75 825.49 356.75 833.5C356.75 848.17 356.75 862.83 356.75 877.5C356.75 891.99 358.83 912.67 341.23 917.65C337.17 918.79 332.7 919.51 328.5 919.81C318.08 920.56 302.64 919.98 295.54 910.93C289.03 902.64 290.46 889.37 290.46 879.5C290.46 856.62 290.46 833.73 290.46 810.85C257.47 810.85 224.49 810.85 191.5 810.85C190.66 831.67 191.39 852.66 191.39 873.5C191.39 882.69 192.86 895.73 189.77 904.32C183.92 920.62 163.13 921.33 148.49 919.15C143.44 918.4 138.36 917.44 134.07 914.45C127.81 910.09 126.57 903.56 125.91 896.5C124.81 884.86 125.01 873.22 125.01 861.5C125.01 810.83 125.01 760.17 125.01 709.5C125.01 695.54 124.24 681.35 125.86 667.5C126.52 661.88 128.33 655.22 133.23 651.7C139.69 647.04 148.79 646.12 156.5 646.08C166.17 646.04 178.29 646.59 185.63 653.87C192.83 661.03 191.39 674.23 191.39 683.5C191.4 699.5 191.39 715.5 191.39 731.5C191.39 739.1 189.98 748.43 192.03 755.69ZM796.08 712.06C796.08 724.03 796.08 736 796.08 747.97C811.88 748.2 827.7 748.01 843.5 748.01C849.45 748.01 861.01 749.26 866.31 747.8C871.58 746.35 872.6 740.07 872.92 735.5C873.16 731.99 873.36 728.11 872.73 724.63C870.09 709.92 850.44 712.01 839.5 712.01C825.03 712.01 810.55 711.85 796.08 712.06ZM796.07 804.92C796.07 821.12 796.07 837.31 796.07 853.5C808.59 854.95 821.88 853.79 834.5 853.79C852.72 853.79 876.25 858.34 880.41 834.81C881.06 831.11 881.08 827.25 880.81 823.5C880.64 821.01 880.14 818.42 879.48 816.02C875.72 802.35 860.57 804.86 849.5 804.86C831.7 804.86 813.87 804.61 796.07 804.92Z" fill="#000000" fill-rule="evenodd" stroke="#000000" stroke-width="0.25" stroke-linejoin="round"/>
</svg>